# xmcd CD database file
#
# Track frame offsets:
#	150
#	22423
#	38228
#	60405
#	78458
#	96771
#	115796
#	136273
#	149579
#	171681
#	192282
#	206802
#	222034
#	243849
#
# Disc length: 3521 seconds
#
# Revision: 1
# Processed by: cddbd v1.4PL0 Copyright (c) Steve Scherf et al.
# Submitted via: CDex 1.51
#
DISCID=d10dbf0e
DTITLE=Collection D'Arnell Andrea - Tristesse Des Mânes
DYEAR=2002
DGENRE=Gothic
TTITLE0=Aux Glycines Défuntes
TTITLE1=Là, Ici Ou Ailleurs
TTITLE2=Au Sacre Des Nuits
TTITLE3=Kergal
TTITLE4=Le Parc Enneigé
TTITLE5=Les Chants De Peine
TTITLE6=Loire Et Léthé
TTITLE7=Les Temples Élevés
TTITLE8=L'ombre Tilleul
TTITLE9=Aux Cordes Éternelles
TTITLE10=Un Automne Restant
TTITLE11=Un Parc, Une Tonnelle
TTITLE12=La Source Du Jour
TTITLE13=La Tristesse Des Mânes
EXTD=YEAR: 2002
EXTT0=
EXTT1=
EXTT2=
EXTT3=
EXTT4=
EXTT5=
EXTT6=
EXTT7=
EXTT8=
EXTT9=
EXTT10=
EXTT11=
EXTT12=
EXTT13=
PLAYORDER=
